<?xml version="1.0" standalone="no"?>
<!DOCTYPE svg PUBLIC "-//W3C//DTD SVG 20010904//EN"
 "http://www.w3.org/TR/2001/REC-SVG-20010904/DTD/svg10.dtd">
<svg version="1.0" xmlns="http://www.w3.org/2000/svg"
 width="260.000000pt" height="260.000000pt" viewBox="0 0 260.000000 260.000000"
 preserveAspectRatio="xMidYMid meet">
<metadata>
Created by potrace 1.14, written by Peter Selinger 2001-2017
</metadata>
<g transform="translate(0.000000,260.000000) scale(0.100000,-0.100000)"
fill="#000000" stroke="none">
<path d="M546 2013 c-107 -28 -221 -115 -297 -225 -41 -60 -79 -146 -79 -178
0 -11 -3 -20 -8 -20 -4 0 -7 -35 -6 -77 3 -137 45 -257 130 -374 26 -35 52
-69 58 -74 16 -15 71 -58 92 -73 77 -53 250 -162 257 -162 4 0 10 7 14 17 4
11 -3 25 -23 41 -16 14 -28 29 -27 33 2 5 -3 6 -10 3 -26 -10 -217 139 -295
231 -88 102 -127 215 -120 346 5 79 10 97 51 181 33 68 61 110 105 154 64 64
161 122 183 109 7 -5 10 -4 6 2 -9 15 35 22 118 19 87 -4 115 -10 174 -41 47
-24 121 -85 105 -85 -5 0 -1 -5 9 -11 41 -24 85 -158 81 -247 -5 -100 -60
-178 -151 -212 -95 -35 -174 -21 -241 43 -45 43 -61 75 -62 128 -3 96 33 157
113 195 147 68 290 -85 182 -195 -17 -17 -66 -23 -82 -9 -17 14 -17 48 0 73
26 38 27 52 4 51 -17 -1 -26 -12 -38 -49 -8 -26 -19 -44 -22 -40 -4 3 -2 -8 4
-25 14 -40 30 -53 68 -54 34 -1 91 20 91 34 0 5 6 6 13 2 6 -4 9 -4 5 0 -3 4
0 24 8 43 58 138 -51 249 -216 220 -33 -6 -97 -43 -123 -72 -50 -54 -60 -82
-55 -154 7 -99 46 -161 133 -216 23 -15 49 -20 115 -20 82 0 87 1 142 38 129
87 167 209 112 369 -76 223 -291 340 -518 281z"/>
<path d="M706 1878 c3 -5 10 -6 15 -3 13 9 11 12 -6 12 -8 0 -12 -4 -9 -9z"/>
<path d="M1309 1772 c-61 -31 -94 -125 -139 -399 -15 -91 -25 -450 -12 -438 6
6 19 75 30 155 23 160 42 228 79 276 23 31 63 52 91 48 6 -1 22 -2 33 -3 12 0
41 -20 64 -43 61 -62 95 -171 102 -333 3 -66 7 -122 9 -124 13 -14 26 74 29
184 3 148 -10 238 -55 379 -54 168 -112 271 -169 300 -25 13 -32 13 -62 -2z"/>
<path d="M1780 1777 c-53 -27 -112 -209 -146 -452 -20 -140 -23 -341 -7 -370
10 -18 12 -16 17 15 3 19 8 69 11 110 5 77 8 97 26 190 12 59 39 120 61 137
22 18 58 22 91 11 100 -33 184 -206 192 -397 2 -42 4 -85 4 -96 2 -32 20 3 22
40 l1 30 13 -30 c17 -38 22 -25 30 78 17 220 68 349 145 366 88 19 158 -42
197 -171 24 -81 39 -188 39 -266 -1 -74 8 -93 21 -44 10 34 10 313 1 370 -16
90 -56 223 -96 317 -55 128 -113 186 -162 162 -43 -22 -87 -107 -106 -207 -3
-14 -9 -41 -14 -60 -7 -29 -29 -166 -45 -290 -2 -14 -4 -29 -5 -35 -1 -5 -13
42 -26 105 -57 274 -131 442 -213 485 -22 11 -32 11 -51 2z"/>
<path d="M1357 922 c-2 -4 -3 -72 -3 -152 1 -143 1 -145 24 -148 22 -3 22 -3
22 146 0 141 -1 150 -20 155 -11 3 -21 2 -23 -1z"/>
<path d="M753 698 c2 -146 3 -153 22 -153 17 0 20 7 20 47 0 45 1 46 20 35 36
-23 78 -7 95 34 17 40 7 144 -16 170 -19 21 -55 25 -85 9 -13 -7 -19 -7 -19 0
0 5 -9 10 -19 10 -18 0 -19 -8 -18 -152z m113 88 c4 -11 6 -39 5 -60 -4 -69
-32 -96 -62 -60 -16 20 -17 117 -1 137 17 20 50 10 58 -17z"/>
<path d="M977 832 c-21 -23 -22 -48 -2 -56 10 -4 20 3 27 19 18 41 68 29 68
-15 0 -5 -18 -15 -40 -21 -59 -18 -82 -44 -77 -86 3 -19 13 -40 23 -48 19 -14
60 -11 80 6 8 7 14 6 19 -1 10 -16 55 -12 55 4 0 8 -4 18 -10 21 -5 3 -10 41
-10 84 0 63 -4 81 -18 94 -26 23 -94 22 -115 -1z m91 -133 c-4 -53 -68 -67
-68 -15 0 26 22 45 53 46 13 0 17 -7 15 -31z"/>
<path d="M1182 843 c-33 -13 -50 -130 -27 -186 17 -41 90 -54 126 -21 38 35
40 154 3 195 -16 18 -71 25 -102 12z m76 -38 c1 -1 5 -24 8 -51 7 -58 -8 -104
-34 -104 -30 0 -42 21 -42 78 0 68 14 95 43 86 12 -3 23 -8 25 -9z"/>
<path d="M1457 832 c-23 -25 -21 -49 3 -55 15 -4 20 0 20 13 0 29 53 42 64 15
9 -26 -4 -43 -40 -49 -47 -9 -72 -39 -69 -83 3 -51 50 -75 92 -48 14 9 24 11
28 5 10 -16 55 -12 55 4 0 8 -4 18 -10 21 -5 3 -10 41 -10 84 0 63 -4 81 -18
94 -26 23 -94 22 -115 -1z m83 -156 c-14 -38 -54 -33 -58 7 -3 23 2 30 30 41
30 13 33 13 36 -3 2 -9 -2 -30 -8 -45z"/>
<path d="M1738 838 c-2 -7 -4 -58 -4 -113 1 -96 2 -100 24 -103 21 -3 22 -1
22 87 0 76 3 92 18 100 37 20 48 -2 47 -98 -1 -88 0 -91 22 -91 22 0 23 3 23
84 0 88 14 122 45 110 18 -7 17 -6 19 -109 1 -75 2 -80 24 -83 21 -3 22 -1 22
93 0 53 -5 105 -10 116 -13 24 -72 26 -91 3 -11 -14 -13 -14 -21 0 -11 19 -69
21 -86 4 -9 -9 -12 -9 -12 0 0 16 -37 15 -42 0z"/>
<path d="M2070 828 c-22 -24 -22 -23 -25 -87 -5 -84 30 -132 90 -124 51 6 75
44 75 117 0 83 -23 116 -80 116 -27 0 -45 -7 -60 -22z m85 -31 c10 -15 14 -40
11 -74 -4 -59 -11 -73 -35 -73 -29 0 -41 22 -41 78 0 85 32 119 65 69z"/>
<path d="M2242 735 c1 -112 1 -115 23 -115 20 0 23 5 23 48 1 127 -1 121 37
136 25 11 33 19 29 30 -8 20 -28 20 -48 0 -15 -14 -16 -14 -16 0 0 10 -9 16
-24 16 -24 0 -24 0 -24 -115z"/>
<path d="M2398 839 c-55 -32 -38 -216 20 -220 67 -6 99 15 111 72 10 47 -2
115 -24 139 -20 22 -77 27 -107 9z m81 -45 c10 -24 8 -114 -4 -133 -9 -16 -40
-14 -54 3 -15 18 -16 107 -2 134 14 27 47 24 60 -4z"/>
</g>
</svg>
